<mxfile host="app.diagrams.net" modified="2021-11-22T02:51:40.475Z" agent="5.0 (Windows NT 10.0; Win64; x64) AppleWebKit/537.36 (KHTML, like Gecko) Chrome/94.0.4606.54 Safari/537.36" etag="6AMyY8ewkhWnQnew079u" version="15.8.3" type="github">
  <diagram id="Yxvccd4uRXfHXYhgJA9T" name="Page-1">
    <mxGraphModel dx="782" dy="446" grid="1" gridSize="10" guides="1" tooltips="1" connect="1" arrows="1" fold="1" page="1" pageScale="1" pageWidth="850" pageHeight="1100" math="0" shadow="0">
      <root>
        <mxCell id="0" />
        <mxCell id="1" parent="0" />
        <mxCell id="sE-uARo-qi2YajXejtQI-1" value="" style="verticalLabelPosition=bottom;verticalAlign=top;html=1;shape=mxgraph.basic.rect;fillColor2=none;strokeWidth=1;size=20;indent=5;" vertex="1" parent="1">
          <mxGeometry x="266" y="830" width="400" height="280" as="geometry" />
        </mxCell>
        <mxCell id="sE-uARo-qi2YajXejtQI-2" value="" style="shape=partialRectangle;whiteSpace=wrap;html=1;right=0;top=0;bottom=0;fillColor=none;routingCenterX=-0.5;" vertex="1" parent="1">
          <mxGeometry x="346" y="1050" width="120" height="60" as="geometry" />
        </mxCell>
        <mxCell id="sE-uARo-qi2YajXejtQI-3" value="" style="shape=partialRectangle;whiteSpace=wrap;html=1;right=0;top=0;bottom=0;fillColor=none;routingCenterX=-0.5;" vertex="1" parent="1">
          <mxGeometry x="426" y="1050" width="120" height="60" as="geometry" />
        </mxCell>
        <mxCell id="sE-uARo-qi2YajXejtQI-4" value="" style="shape=partialRectangle;whiteSpace=wrap;html=1;right=0;top=0;bottom=0;fillColor=none;routingCenterX=-0.5;" vertex="1" parent="1">
          <mxGeometry x="506" y="1050" width="120" height="60" as="geometry" />
        </mxCell>
        <mxCell id="sE-uARo-qi2YajXejtQI-5" value="" style="shape=partialRectangle;whiteSpace=wrap;html=1;right=0;top=0;bottom=0;fillColor=none;routingCenterX=-0.5;" vertex="1" parent="1">
          <mxGeometry x="586" y="1050" width="120" height="60" as="geometry" />
        </mxCell>
        <mxCell id="sE-uARo-qi2YajXejtQI-6" value="" style="shape=partialRectangle;whiteSpace=wrap;html=1;top=0;bottom=0;fillColor=none;" vertex="1" parent="1">
          <mxGeometry x="306" y="830" width="120" height="60" as="geometry" />
        </mxCell>
        <mxCell id="sE-uARo-qi2YajXejtQI-7" value="" style="shape=partialRectangle;whiteSpace=wrap;html=1;top=0;bottom=0;fillColor=none;" vertex="1" parent="1">
          <mxGeometry x="346" y="830" width="120" height="60" as="geometry" />
        </mxCell>
        <mxCell id="sE-uARo-qi2YajXejtQI-8" value="" style="shape=partialRectangle;whiteSpace=wrap;html=1;top=0;bottom=0;fillColor=none;" vertex="1" parent="1">
          <mxGeometry x="386" y="830" width="120" height="60" as="geometry" />
        </mxCell>
        <mxCell id="sE-uARo-qi2YajXejtQI-9" value="" style="shape=partialRectangle;whiteSpace=wrap;html=1;top=0;bottom=0;fillColor=none;" vertex="1" parent="1">
          <mxGeometry x="506" y="830" width="40" height="60" as="geometry" />
        </mxCell>
        <mxCell id="sE-uARo-qi2YajXejtQI-10" value="" style="shape=partialRectangle;whiteSpace=wrap;html=1;top=0;bottom=0;fillColor=none;" vertex="1" parent="1">
          <mxGeometry x="546" y="830" width="120" height="60" as="geometry" />
        </mxCell>
        <mxCell id="sE-uARo-qi2YajXejtQI-11" value="" style="shape=partialRectangle;whiteSpace=wrap;html=1;top=0;bottom=0;fillColor=none;" vertex="1" parent="1">
          <mxGeometry x="586" y="830" width="40" height="60" as="geometry" />
        </mxCell>
        <mxCell id="sE-uARo-qi2YajXejtQI-12" value="" style="verticalLabelPosition=bottom;verticalAlign=top;html=1;shape=mxgraph.basic.rect;fillColor2=none;strokeWidth=1;size=20;indent=5;" vertex="1" parent="1">
          <mxGeometry x="266" y="874" width="400" height="200" as="geometry" />
        </mxCell>
        <mxCell id="sE-uARo-qi2YajXejtQI-13" value="&lt;font style=&quot;font-size: 24px&quot;&gt;+&lt;/font&gt;" style="text;html=1;align=center;verticalAlign=middle;resizable=0;points=[];autosize=1;strokeColor=none;fillColor=none;" vertex="1" parent="1">
          <mxGeometry x="271" y="850" width="30" height="20" as="geometry" />
        </mxCell>
        <mxCell id="sE-uARo-qi2YajXejtQI-14" value="" style="ellipse;whiteSpace=wrap;html=1;aspect=fixed;" vertex="1" parent="1">
          <mxGeometry x="281" y="837" width="10" height="10" as="geometry" />
        </mxCell>
        <mxCell id="sE-uARo-qi2YajXejtQI-15" value="&lt;span style=&quot;font-size: 24px&quot;&gt;-&lt;/span&gt;" style="text;html=1;align=center;verticalAlign=middle;resizable=0;points=[];autosize=1;strokeColor=none;fillColor=none;" vertex="1" parent="1">
          <mxGeometry x="316" y="847" width="20" height="20" as="geometry" />
        </mxCell>
        <mxCell id="sE-uARo-qi2YajXejtQI-16" value="" style="ellipse;whiteSpace=wrap;html=1;aspect=fixed;" vertex="1" parent="1">
          <mxGeometry x="321" y="837" width="10" height="10" as="geometry" />
        </mxCell>
        <mxCell id="sE-uARo-qi2YajXejtQI-17" value="&lt;font style=&quot;font-size: 14px&quot;&gt;I0.0&lt;/font&gt;" style="text;html=1;align=center;verticalAlign=middle;resizable=0;points=[];autosize=1;strokeColor=none;fillColor=none;" vertex="1" parent="1">
          <mxGeometry x="346" y="850" width="40" height="20" as="geometry" />
        </mxCell>
        <mxCell id="sE-uARo-qi2YajXejtQI-18" value="" style="ellipse;whiteSpace=wrap;html=1;aspect=fixed;" vertex="1" parent="1">
          <mxGeometry x="360" y="837" width="10" height="10" as="geometry" />
        </mxCell>
        <mxCell id="sE-uARo-qi2YajXejtQI-19" value="&lt;span style=&quot;font-size: 14px&quot;&gt;I0.1&lt;/span&gt;" style="text;html=1;align=center;verticalAlign=middle;resizable=0;points=[];autosize=1;strokeColor=none;fillColor=none;" vertex="1" parent="1">
          <mxGeometry x="386" y="850" width="40" height="20" as="geometry" />
        </mxCell>
        <mxCell id="sE-uARo-qi2YajXejtQI-20" value="" style="ellipse;whiteSpace=wrap;html=1;aspect=fixed;" vertex="1" parent="1">
          <mxGeometry x="401" y="837" width="10" height="10" as="geometry" />
        </mxCell>
        <mxCell id="sE-uARo-qi2YajXejtQI-21" value="&lt;font style=&quot;font-size: 14px&quot;&gt;I0.2&lt;/font&gt;" style="text;html=1;align=center;verticalAlign=middle;resizable=0;points=[];autosize=1;strokeColor=none;fillColor=none;" vertex="1" parent="1">
          <mxGeometry x="426" y="850" width="40" height="20" as="geometry" />
        </mxCell>
        <mxCell id="sE-uARo-qi2YajXejtQI-22" value="" style="ellipse;whiteSpace=wrap;html=1;aspect=fixed;" vertex="1" parent="1">
          <mxGeometry x="441" y="837" width="10" height="10" as="geometry" />
        </mxCell>
        <mxCell id="sE-uARo-qi2YajXejtQI-23" value="&lt;font style=&quot;font-size: 14px&quot;&gt;I0.3&lt;/font&gt;" style="text;html=1;align=center;verticalAlign=middle;resizable=0;points=[];autosize=1;strokeColor=none;fillColor=none;" vertex="1" parent="1">
          <mxGeometry x="466" y="850" width="40" height="20" as="geometry" />
        </mxCell>
        <mxCell id="sE-uARo-qi2YajXejtQI-24" value="" style="ellipse;whiteSpace=wrap;html=1;aspect=fixed;" vertex="1" parent="1">
          <mxGeometry x="480" y="837" width="10" height="10" as="geometry" />
        </mxCell>
        <mxCell id="sE-uARo-qi2YajXejtQI-25" value="&lt;font style=&quot;font-size: 14px&quot;&gt;I0.4&lt;/font&gt;" style="text;html=1;align=center;verticalAlign=middle;resizable=0;points=[];autosize=1;strokeColor=none;fillColor=none;" vertex="1" parent="1">
          <mxGeometry x="506" y="850" width="40" height="20" as="geometry" />
        </mxCell>
        <mxCell id="sE-uARo-qi2YajXejtQI-26" value="" style="ellipse;whiteSpace=wrap;html=1;aspect=fixed;" vertex="1" parent="1">
          <mxGeometry x="521" y="837" width="10" height="10" as="geometry" />
        </mxCell>
        <mxCell id="sE-uARo-qi2YajXejtQI-27" value="&lt;font style=&quot;font-size: 14px&quot;&gt;I0.5&lt;/font&gt;" style="text;html=1;align=center;verticalAlign=middle;resizable=0;points=[];autosize=1;strokeColor=none;fillColor=none;" vertex="1" parent="1">
          <mxGeometry x="546" y="850" width="40" height="20" as="geometry" />
        </mxCell>
        <mxCell id="sE-uARo-qi2YajXejtQI-28" value="" style="ellipse;whiteSpace=wrap;html=1;aspect=fixed;" vertex="1" parent="1">
          <mxGeometry x="561" y="837" width="10" height="10" as="geometry" />
        </mxCell>
        <mxCell id="sE-uARo-qi2YajXejtQI-29" value="&lt;font style=&quot;font-size: 14px&quot;&gt;I0.6&lt;/font&gt;" style="text;html=1;align=center;verticalAlign=middle;resizable=0;points=[];autosize=1;strokeColor=none;fillColor=none;" vertex="1" parent="1">
          <mxGeometry x="586" y="850" width="40" height="20" as="geometry" />
        </mxCell>
        <mxCell id="sE-uARo-qi2YajXejtQI-30" value="" style="ellipse;whiteSpace=wrap;html=1;aspect=fixed;" vertex="1" parent="1">
          <mxGeometry x="600" y="837" width="10" height="10" as="geometry" />
        </mxCell>
        <mxCell id="sE-uARo-qi2YajXejtQI-31" value="&lt;font style=&quot;font-size: 14px&quot;&gt;I0.7&lt;/font&gt;" style="text;html=1;align=center;verticalAlign=middle;resizable=0;points=[];autosize=1;strokeColor=none;fillColor=none;" vertex="1" parent="1">
          <mxGeometry x="626" y="850" width="40" height="20" as="geometry" />
        </mxCell>
        <mxCell id="sE-uARo-qi2YajXejtQI-32" value="" style="ellipse;whiteSpace=wrap;html=1;aspect=fixed;" vertex="1" parent="1">
          <mxGeometry x="641" y="837" width="10" height="10" as="geometry" />
        </mxCell>
        <mxCell id="sE-uARo-qi2YajXejtQI-33" value="" style="pointerEvents=1;verticalLabelPosition=bottom;shadow=0;dashed=0;align=center;html=1;verticalAlign=top;shape=mxgraph.electrical.electro-mechanical.make_contact;" vertex="1" parent="1">
          <mxGeometry x="281" y="1094" width="45" height="10" as="geometry" />
        </mxCell>
        <mxCell id="sE-uARo-qi2YajXejtQI-34" value="" style="pointerEvents=1;verticalLabelPosition=bottom;shadow=0;dashed=0;align=center;html=1;verticalAlign=top;shape=mxgraph.electrical.electro-mechanical.make_contact;" vertex="1" parent="1">
          <mxGeometry x="365" y="1094" width="45" height="10" as="geometry" />
        </mxCell>
        <mxCell id="sE-uARo-qi2YajXejtQI-35" value="" style="pointerEvents=1;verticalLabelPosition=bottom;shadow=0;dashed=0;align=center;html=1;verticalAlign=top;shape=mxgraph.electrical.electro-mechanical.make_contact;" vertex="1" parent="1">
          <mxGeometry x="442" y="1094" width="45" height="10" as="geometry" />
        </mxCell>
        <mxCell id="sE-uARo-qi2YajXejtQI-36" value="" style="pointerEvents=1;verticalLabelPosition=bottom;shadow=0;dashed=0;align=center;html=1;verticalAlign=top;shape=mxgraph.electrical.electro-mechanical.make_contact;" vertex="1" parent="1">
          <mxGeometry x="526" y="1094" width="45" height="10" as="geometry" />
        </mxCell>
        <mxCell id="sE-uARo-qi2YajXejtQI-37" value="" style="pointerEvents=1;verticalLabelPosition=bottom;shadow=0;dashed=0;align=center;html=1;verticalAlign=top;shape=mxgraph.electrical.electro-mechanical.make_contact;" vertex="1" parent="1">
          <mxGeometry x="600" y="1094" width="45" height="10" as="geometry" />
        </mxCell>
        <mxCell id="sE-uARo-qi2YajXejtQI-38" value="&lt;font style=&quot;font-size: 14px&quot;&gt;&amp;nbsp;O 0.0&lt;/font&gt;" style="text;html=1;align=center;verticalAlign=middle;resizable=0;points=[];autosize=1;strokeColor=none;fillColor=none;" vertex="1" parent="1">
          <mxGeometry x="281" y="1074" width="50" height="20" as="geometry" />
        </mxCell>
        <mxCell id="sE-uARo-qi2YajXejtQI-39" value="&lt;span style=&quot;font-size: 14px&quot;&gt;O 0.1&lt;/span&gt;" style="text;html=1;align=center;verticalAlign=middle;resizable=0;points=[];autosize=1;strokeColor=none;fillColor=none;" vertex="1" parent="1">
          <mxGeometry x="364" y="1074" width="50" height="20" as="geometry" />
        </mxCell>
        <mxCell id="sE-uARo-qi2YajXejtQI-40" value="&lt;font style=&quot;font-size: 14px&quot;&gt;O 0.2&lt;/font&gt;" style="text;html=1;align=center;verticalAlign=middle;resizable=0;points=[];autosize=1;strokeColor=none;fillColor=none;" vertex="1" parent="1">
          <mxGeometry x="445" y="1074" width="50" height="20" as="geometry" />
        </mxCell>
        <mxCell id="sE-uARo-qi2YajXejtQI-41" value="&lt;font style=&quot;font-size: 14px&quot;&gt;O 0.3&lt;/font&gt;" style="text;html=1;align=center;verticalAlign=middle;resizable=0;points=[];autosize=1;strokeColor=none;fillColor=none;" vertex="1" parent="1">
          <mxGeometry x="529" y="1074" width="50" height="20" as="geometry" />
        </mxCell>
        <mxCell id="sE-uARo-qi2YajXejtQI-42" value="" style="edgeStyle=none;shape=link;rounded=0;orthogonalLoop=1;jettySize=auto;html=1;strokeColor=#000000;" edge="1" parent="1" source="sE-uARo-qi2YajXejtQI-43" target="sE-uARo-qi2YajXejtQI-12">
          <mxGeometry relative="1" as="geometry" />
        </mxCell>
        <mxCell id="sE-uARo-qi2YajXejtQI-43" value="&lt;font style=&quot;font-size: 14px&quot;&gt;O 0.4&lt;/font&gt;" style="text;html=1;align=center;verticalAlign=middle;resizable=0;points=[];autosize=1;strokeColor=none;fillColor=none;" vertex="1" parent="1">
          <mxGeometry x="604" y="1074" width="50" height="20" as="geometry" />
        </mxCell>
        <mxCell id="sE-uARo-qi2YajXejtQI-44" value="" style="ellipse;whiteSpace=wrap;html=1;aspect=fixed;" vertex="1" parent="1">
          <mxGeometry x="272" y="1084" width="10" height="10" as="geometry" />
        </mxCell>
        <mxCell id="sE-uARo-qi2YajXejtQI-45" value="" style="ellipse;whiteSpace=wrap;html=1;aspect=fixed;" vertex="1" parent="1">
          <mxGeometry x="330" y="1084" width="10" height="10" as="geometry" />
        </mxCell>
        <mxCell id="sE-uARo-qi2YajXejtQI-46" value="" style="ellipse;whiteSpace=wrap;html=1;aspect=fixed;" vertex="1" parent="1">
          <mxGeometry x="353.5" y="1084" width="10" height="10" as="geometry" />
        </mxCell>
        <mxCell id="sE-uARo-qi2YajXejtQI-47" value="" style="ellipse;whiteSpace=wrap;html=1;aspect=fixed;" vertex="1" parent="1">
          <mxGeometry x="411.5" y="1084" width="10" height="10" as="geometry" />
        </mxCell>
        <mxCell id="sE-uARo-qi2YajXejtQI-48" value="" style="ellipse;whiteSpace=wrap;html=1;aspect=fixed;" vertex="1" parent="1">
          <mxGeometry x="432" y="1084" width="10" height="10" as="geometry" />
        </mxCell>
        <mxCell id="sE-uARo-qi2YajXejtQI-49" value="" style="ellipse;whiteSpace=wrap;html=1;aspect=fixed;" vertex="1" parent="1">
          <mxGeometry x="490" y="1084" width="10" height="10" as="geometry" />
        </mxCell>
        <mxCell id="sE-uARo-qi2YajXejtQI-50" value="" style="ellipse;whiteSpace=wrap;html=1;aspect=fixed;" vertex="1" parent="1">
          <mxGeometry x="514.5" y="1084" width="10" height="10" as="geometry" />
        </mxCell>
        <mxCell id="sE-uARo-qi2YajXejtQI-51" value="" style="ellipse;whiteSpace=wrap;html=1;aspect=fixed;" vertex="1" parent="1">
          <mxGeometry x="572.5" y="1084" width="10" height="10" as="geometry" />
        </mxCell>
        <mxCell id="sE-uARo-qi2YajXejtQI-52" value="" style="ellipse;whiteSpace=wrap;html=1;aspect=fixed;" vertex="1" parent="1">
          <mxGeometry x="592" y="1084" width="10" height="10" as="geometry" />
        </mxCell>
        <mxCell id="sE-uARo-qi2YajXejtQI-53" value="" style="ellipse;whiteSpace=wrap;html=1;aspect=fixed;" vertex="1" parent="1">
          <mxGeometry x="652" y="1084" width="10" height="10" as="geometry" />
        </mxCell>
        <mxCell id="sE-uARo-qi2YajXejtQI-54" value="" style="ellipse;whiteSpace=wrap;html=1;aspect=fixed;" vertex="1" parent="1">
          <mxGeometry x="165" y="830" width="20" height="20" as="geometry" />
        </mxCell>
        <mxCell id="sE-uARo-qi2YajXejtQI-55" value="" style="ellipse;whiteSpace=wrap;html=1;aspect=fixed;" vertex="1" parent="1">
          <mxGeometry x="316" y="700" width="20" height="20" as="geometry" />
        </mxCell>
        <mxCell id="sE-uARo-qi2YajXejtQI-56" value="&lt;font style=&quot;font-size: 24px&quot;&gt;+&lt;/font&gt;" style="text;html=1;align=center;verticalAlign=middle;resizable=0;points=[];autosize=1;strokeColor=none;fillColor=none;" vertex="1" parent="1">
          <mxGeometry x="160" y="830" width="30" height="20" as="geometry" />
        </mxCell>
        <mxCell id="sE-uARo-qi2YajXejtQI-57" value="&lt;span style=&quot;font-size: 24px&quot;&gt;-&lt;/span&gt;" style="text;html=1;align=center;verticalAlign=middle;resizable=0;points=[];autosize=1;strokeColor=none;fillColor=none;" vertex="1" parent="1">
          <mxGeometry x="316" y="700" width="20" height="20" as="geometry" />
        </mxCell>
        <mxCell id="sE-uARo-qi2YajXejtQI-58" value="" style="endArrow=none;html=1;strokeColor=#FF0000;" edge="1" parent="1">
          <mxGeometry width="50" height="50" relative="1" as="geometry">
            <mxPoint x="277" y="1150" as="sourcePoint" />
            <mxPoint x="276.79999999999995" y="1094.0000000000002" as="targetPoint" />
            <Array as="points" />
          </mxGeometry>
        </mxCell>
        <mxCell id="sE-uARo-qi2YajXejtQI-59" value="" style="endArrow=none;html=1;strokeColor=#FF0000;" edge="1" parent="1">
          <mxGeometry width="50" height="50" relative="1" as="geometry">
            <mxPoint x="358" y="1150" as="sourcePoint" />
            <mxPoint x="358.29999999999995" y="1094.0000000000002" as="targetPoint" />
            <Array as="points" />
          </mxGeometry>
        </mxCell>
        <mxCell id="sE-uARo-qi2YajXejtQI-60" value="" style="endArrow=none;html=1;strokeColor=#FF0000;" edge="1" parent="1">
          <mxGeometry width="50" height="50" relative="1" as="geometry">
            <mxPoint x="519" y="1150" as="sourcePoint" />
            <mxPoint x="519.3000000000002" y="1094.0000000000002" as="targetPoint" />
            <Array as="points" />
          </mxGeometry>
        </mxCell>
        <mxCell id="sE-uARo-qi2YajXejtQI-61" value="" style="endArrow=none;html=1;strokeColor=#FF0000;" edge="1" parent="1">
          <mxGeometry width="50" height="50" relative="1" as="geometry">
            <mxPoint x="285.9999999999998" y="840" as="sourcePoint" />
            <mxPoint x="185.99999999999977" y="840" as="targetPoint" />
            <Array as="points" />
          </mxGeometry>
        </mxCell>
        <mxCell id="sE-uARo-qi2YajXejtQI-62" value="" style="endArrow=none;html=1;strokeColor=#FF0000;" edge="1" parent="1">
          <mxGeometry width="50" height="50" relative="1" as="geometry">
            <mxPoint x="596" y="1150" as="sourcePoint" />
            <mxPoint x="596.4099999999999" y="1094.0000000000002" as="targetPoint" />
            <Array as="points" />
          </mxGeometry>
        </mxCell>
        <mxCell id="sE-uARo-qi2YajXejtQI-63" value="" style="endArrow=none;html=1;strokeColor=#00CC66;" edge="1" parent="1">
          <mxGeometry width="50" height="50" relative="1" as="geometry">
            <mxPoint x="335" y="1220" as="sourcePoint" />
            <mxPoint x="334.7999999999997" y="1092.1999999999998" as="targetPoint" />
            <Array as="points" />
          </mxGeometry>
        </mxCell>
        <mxCell id="sE-uARo-qi2YajXejtQI-64" value="" style="endArrow=none;html=1;strokeColor=#00CC66;startArrow=none;" edge="1" parent="1" source="sE-uARo-qi2YajXejtQI-74">
          <mxGeometry width="50" height="50" relative="1" as="geometry">
            <mxPoint x="416" y="1160" as="sourcePoint" />
            <mxPoint x="416.3000000000002" y="1092.1999999999998" as="targetPoint" />
            <Array as="points" />
          </mxGeometry>
        </mxCell>
        <mxCell id="sE-uARo-qi2YajXejtQI-65" value="" style="endArrow=none;html=1;strokeColor=#FF0000;" edge="1" parent="1">
          <mxGeometry width="50" height="50" relative="1" as="geometry">
            <mxPoint x="235.99999999999977" y="1150" as="sourcePoint" />
            <mxPoint x="596" y="1150" as="targetPoint" />
            <Array as="points" />
          </mxGeometry>
        </mxCell>
        <mxCell id="sE-uARo-qi2YajXejtQI-66" value="" style="endArrow=none;html=1;strokeColor=#00CC66;" edge="1" parent="1">
          <mxGeometry width="50" height="50" relative="1" as="geometry">
            <mxPoint x="330" y="740" as="sourcePoint" />
            <mxPoint x="215" y="740" as="targetPoint" />
            <Array as="points" />
          </mxGeometry>
        </mxCell>
        <mxCell id="sE-uARo-qi2YajXejtQI-67" value="" style="endArrow=none;html=1;strokeColor=#00CC66;" edge="1" parent="1">
          <mxGeometry width="50" height="50" relative="1" as="geometry">
            <mxPoint x="215.99999999999977" y="1220" as="sourcePoint" />
            <mxPoint x="215.99999999999977" y="740" as="targetPoint" />
            <Array as="points" />
          </mxGeometry>
        </mxCell>
        <mxCell id="sE-uARo-qi2YajXejtQI-68" value="" style="endArrow=none;html=1;strokeColor=#00CC66;entryX=0.517;entryY=1.064;entryDx=0;entryDy=0;entryPerimeter=0;exitX=0.5;exitY=0;exitDx=0;exitDy=0;" edge="1" parent="1" source="sE-uARo-qi2YajXejtQI-16" target="sE-uARo-qi2YajXejtQI-57">
          <mxGeometry width="50" height="50" relative="1" as="geometry">
            <mxPoint x="326" y="790" as="sourcePoint" />
            <mxPoint x="215" y="792" as="targetPoint" />
            <Array as="points" />
          </mxGeometry>
        </mxCell>
        <mxCell id="sE-uARo-qi2YajXejtQI-69" value="" style="endArrow=none;html=1;strokeColor=#FF0000;" edge="1" parent="1">
          <mxGeometry width="50" height="50" relative="1" as="geometry">
            <mxPoint x="236.20000000000005" y="1150" as="sourcePoint" />
            <mxPoint x="235.99999999999977" y="750" as="targetPoint" />
            <Array as="points" />
          </mxGeometry>
        </mxCell>
        <mxCell id="sE-uARo-qi2YajXejtQI-70" value="" style="endArrow=none;html=1;strokeColor=#FF0000;entryX=1;entryY=1;entryDx=0;entryDy=0;entryPerimeter=0;" edge="1" parent="1">
          <mxGeometry width="50" height="50" relative="1" as="geometry">
            <mxPoint x="236.50000000000023" y="750" as="sourcePoint" />
            <mxPoint x="568" y="748.25" as="targetPoint" />
            <Array as="points" />
          </mxGeometry>
        </mxCell>
        <mxCell id="sE-uARo-qi2YajXejtQI-71" value="&lt;span style=&quot;font-size: 10px&quot;&gt;SE&lt;br&gt;&lt;/span&gt;" style="text;html=1;strokeColor=none;fillColor=none;align=center;verticalAlign=middle;whiteSpace=wrap;rounded=0;" vertex="1" parent="1">
          <mxGeometry x="363.5" y="810.5" width="40" height="20" as="geometry" />
        </mxCell>
        <mxCell id="sE-uARo-qi2YajXejtQI-72" value="" style="pointerEvents=1;verticalLabelPosition=bottom;shadow=0;dashed=0;align=center;html=1;verticalAlign=top;shape=mxgraph.electrical.electro-mechanical.pushbutton_break;strokeColor=#FF0000;rotation=-90;" vertex="1" parent="1">
          <mxGeometry x="388" y="776" width="88" height="34.5" as="geometry" />
        </mxCell>
        <mxCell id="sE-uARo-qi2YajXejtQI-73" value="" style="pointerEvents=1;verticalLabelPosition=bottom;shadow=0;dashed=0;align=center;html=1;verticalAlign=top;shape=mxgraph.electrical.miscellaneous.light_bulb;strokeColor=#000000;rotation=-180;" vertex="1" parent="1">
          <mxGeometry x="323" y="1180" width="24" height="20" as="geometry" />
        </mxCell>
        <mxCell id="sE-uARo-qi2YajXejtQI-74" value="" style="pointerEvents=1;verticalLabelPosition=bottom;shadow=0;dashed=0;align=center;html=1;verticalAlign=top;shape=mxgraph.electrical.miscellaneous.light_bulb;strokeColor=#000000;rotation=-181;" vertex="1" parent="1">
          <mxGeometry x="402" y="1180" width="24" height="20" as="geometry" />
        </mxCell>
        <mxCell id="sE-uARo-qi2YajXejtQI-75" value="" style="endArrow=none;html=1;strokeColor=#00CC66;exitX=0;exitY=1;exitDx=0;exitDy=0;" edge="1" parent="1" source="sE-uARo-qi2YajXejtQI-90">
          <mxGeometry width="50" height="50" relative="1" as="geometry">
            <mxPoint x="656" y="1220" as="sourcePoint" />
            <mxPoint x="215" y="1220" as="targetPoint" />
            <Array as="points" />
          </mxGeometry>
        </mxCell>
        <mxCell id="sE-uARo-qi2YajXejtQI-76" value="" style="endArrow=none;html=1;strokeColor=#00CC66;" edge="1" parent="1">
          <mxGeometry width="50" height="50" relative="1" as="geometry">
            <mxPoint x="416" y="1220" as="sourcePoint" />
            <mxPoint x="416" y="1200" as="targetPoint" />
            <Array as="points" />
          </mxGeometry>
        </mxCell>
        <mxCell id="sE-uARo-qi2YajXejtQI-77" value="&lt;span style=&quot;font-size: 10px&quot;&gt;PR&lt;/span&gt;" style="text;html=1;strokeColor=none;fillColor=none;align=center;verticalAlign=middle;whiteSpace=wrap;rounded=0;" vertex="1" parent="1">
          <mxGeometry x="421.5" y="1200" width="40" height="20" as="geometry" />
        </mxCell>
        <mxCell id="sE-uARo-qi2YajXejtQI-78" value="&lt;span style=&quot;font-size: 10px&quot;&gt;ES&lt;/span&gt;" style="text;html=1;strokeColor=none;fillColor=none;align=center;verticalAlign=middle;whiteSpace=wrap;rounded=0;" vertex="1" parent="1">
          <mxGeometry x="336" y="1200" width="40" height="20" as="geometry" />
        </mxCell>
        <mxCell id="sE-uARo-qi2YajXejtQI-79" value="" style="endArrow=none;html=1;strokeColor=#FF0000;" edge="1" parent="1">
          <mxGeometry width="50" height="50" relative="1" as="geometry">
            <mxPoint x="436.5" y="1150" as="sourcePoint" />
            <mxPoint x="436.8000000000002" y="1094.0000000000002" as="targetPoint" />
            <Array as="points" />
          </mxGeometry>
        </mxCell>
        <mxCell id="sE-uARo-qi2YajXejtQI-80" value="" style="ellipse;whiteSpace=wrap;html=1;aspect=fixed;" vertex="1" parent="1">
          <mxGeometry x="514" y="1084" width="10" height="10" as="geometry" />
        </mxCell>
        <mxCell id="sE-uARo-qi2YajXejtQI-81" value="" style="endArrow=none;html=1;strokeColor=#00CC66;" edge="1" parent="1">
          <mxGeometry width="50" height="50" relative="1" as="geometry">
            <mxPoint x="495.5" y="1220" as="sourcePoint" />
            <mxPoint x="495.3000000000002" y="1092.1999999999998" as="targetPoint" />
            <Array as="points" />
          </mxGeometry>
        </mxCell>
        <mxCell id="sE-uARo-qi2YajXejtQI-82" value="" style="pointerEvents=1;verticalLabelPosition=bottom;shadow=0;dashed=0;align=center;html=1;verticalAlign=top;shape=mxgraph.electrical.miscellaneous.light_bulb;strokeColor=#000000;rotation=-180;" vertex="1" parent="1">
          <mxGeometry x="483.5" y="1180" width="24" height="20" as="geometry" />
        </mxCell>
        <mxCell id="sE-uARo-qi2YajXejtQI-83" value="&lt;span style=&quot;font-size: 10px&quot;&gt;L1&lt;/span&gt;" style="text;html=1;strokeColor=none;fillColor=none;align=center;verticalAlign=middle;whiteSpace=wrap;rounded=0;" vertex="1" parent="1">
          <mxGeometry x="495" y="1200" width="40" height="20" as="geometry" />
        </mxCell>
        <mxCell id="sE-uARo-qi2YajXejtQI-85" value="&lt;span style=&quot;font-size: 10px&quot;&gt;BE1&lt;/span&gt;" style="text;html=1;strokeColor=none;fillColor=none;align=center;verticalAlign=middle;whiteSpace=wrap;rounded=0;" vertex="1" parent="1">
          <mxGeometry x="443.5" y="810" width="40" height="20" as="geometry" />
        </mxCell>
        <mxCell id="sE-uARo-qi2YajXejtQI-86" value="&lt;span style=&quot;font-size: 10px&quot;&gt;B1&lt;/span&gt;" style="text;html=1;strokeColor=none;fillColor=none;align=center;verticalAlign=middle;whiteSpace=wrap;rounded=0;" vertex="1" parent="1">
          <mxGeometry x="564.5" y="810" width="40" height="20" as="geometry" />
        </mxCell>
        <mxCell id="sE-uARo-qi2YajXejtQI-87" value="" style="pointerEvents=1;verticalLabelPosition=bottom;shadow=0;dashed=0;align=center;html=1;verticalAlign=top;shape=mxgraph.electrical.electro-mechanical.make_contact;hachureGap=4;strokeColor=#FF0000;rotation=-90;" vertex="1" parent="1">
          <mxGeometry x="313" y="784.25" width="89" height="16" as="geometry" />
        </mxCell>
        <mxCell id="sE-uARo-qi2YajXejtQI-88" value="" style="endArrow=none;html=1;strokeColor=#00CC66;" edge="1" parent="1">
          <mxGeometry width="50" height="50" relative="1" as="geometry">
            <mxPoint x="495.5" y="1220.0000000000005" as="sourcePoint" />
            <mxPoint x="495.3000000000002" y="1092.1999999999998" as="targetPoint" />
            <Array as="points" />
          </mxGeometry>
        </mxCell>
        <mxCell id="sE-uARo-qi2YajXejtQI-89" value="" style="pointerEvents=1;verticalLabelPosition=bottom;shadow=0;dashed=0;align=center;html=1;verticalAlign=top;shape=mxgraph.electrical.miscellaneous.light_bulb;strokeColor=#000000;rotation=-180;" vertex="1" parent="1">
          <mxGeometry x="483.5" y="1180" width="24" height="20" as="geometry" />
        </mxCell>
        <mxCell id="sE-uARo-qi2YajXejtQI-90" value="&lt;span style=&quot;font-size: 10px&quot;&gt;L1&lt;/span&gt;" style="text;html=1;strokeColor=none;fillColor=none;align=center;verticalAlign=middle;whiteSpace=wrap;rounded=0;" vertex="1" parent="1">
          <mxGeometry x="495" y="1200" width="40" height="20" as="geometry" />
        </mxCell>
        <mxCell id="sE-uARo-qi2YajXejtQI-91" value="&lt;span style=&quot;font-size: 10px&quot;&gt;SE&lt;br&gt;&lt;/span&gt;" style="text;html=1;strokeColor=none;fillColor=none;align=center;verticalAlign=middle;whiteSpace=wrap;rounded=0;" vertex="1" parent="1">
          <mxGeometry x="363.5" y="810.5" width="40" height="20" as="geometry" />
        </mxCell>
        <mxCell id="sE-uARo-qi2YajXejtQI-92" value="" style="pointerEvents=1;verticalLabelPosition=bottom;shadow=0;dashed=0;align=center;html=1;verticalAlign=top;shape=mxgraph.electrical.electro-mechanical.make_contact;hachureGap=4;strokeColor=#FF0000;rotation=-90;" vertex="1" parent="1">
          <mxGeometry x="313" y="784.25" width="89" height="16" as="geometry" />
        </mxCell>
        <mxCell id="sE-uARo-qi2YajXejtQI-94" value="" style="pointerEvents=1;verticalLabelPosition=bottom;shadow=0;dashed=0;align=center;html=1;verticalAlign=top;shape=mxgraph.electrical.electro-mechanical.push_switch_no;rotation=-90;fillColor=#CC0000;strokeColor=#FF0000;" vertex="1" parent="1">
          <mxGeometry x="514" y="784" width="89" height="19" as="geometry" />
        </mxCell>
      </root>
    </mxGraphModel>
  </diagram>
</mxfile>
